<?xml version="1.0" encoding="UTF-8" standalone="no"?>
<svg
   width="58pt"
   height="51.422pt"
   viewBox="0 0 58 51.422"
   version="1.1"
   id="svg42"
   sodipodi:docname="logo.pdf"
   xmlns:inkscape="http://www.inkscape.org/namespaces/inkscape"
   xmlns:sodipodi="http://sodipodi.sourceforge.net/DTD/sodipodi-0.dtd"
   xmlns="http://www.w3.org/2000/svg"
   xmlns:svg="http://www.w3.org/2000/svg">
  <sodipodi:namedview
     id="namedview42"
     pagecolor="#ffffff"
     bordercolor="#000000"
     borderopacity="0.25"
     inkscape:showpageshadow="2"
     inkscape:pageopacity="0.0"
     inkscape:pagecheckerboard="0"
     inkscape:deskcolor="#d1d1d1"
     inkscape:document-units="pt" />
  <defs
     id="defs11">
    <clipPath
       id="clip-0">
      <path
         clip-rule="nonzero"
         d="M 0 0 L 58 0 L 58 51.421875 L 0 51.421875 Z M 0 0 "
         id="path1" />
    </clipPath>
    <clipPath
       id="clip-1">
      <path
         clip-rule="nonzero"
         d="M 24 8 L 58 8 L 58 51.421875 L 24 51.421875 Z M 24 8 "
         id="path2" />
    </clipPath>
    <clipPath
       id="clip-2">
      <path
         clip-rule="nonzero"
         d="M 0 8 L 34 8 L 34 51.421875 L 0 51.421875 Z M 0 8 "
         id="path3" />
    </clipPath>
    <clipPath
       id="clip-3">
      <path
         clip-rule="nonzero"
         d="M 17 7 L 53 7 L 53 51.421875 L 17 51.421875 Z M 17 7 "
         id="path4" />
    </clipPath>
    <clipPath
       id="clip-4">
      <path
         clip-rule="nonzero"
         d="M 17 21 L 53 21 L 53 51.421875 L 17 51.421875 Z M 17 21 "
         id="path5" />
    </clipPath>
    <clipPath
       id="clip-5">
      <path
         clip-rule="nonzero"
         d="M 5 7 L 41 7 L 41 51.421875 L 5 51.421875 Z M 5 7 "
         id="path6" />
    </clipPath>
    <clipPath
       id="clip-6">
      <path
         clip-rule="nonzero"
         d="M 5 21 L 41 21 L 41 51.421875 L 5 51.421875 Z M 5 21 "
         id="path7" />
    </clipPath>
    <clipPath
       id="clip-7">
      <path
         clip-rule="nonzero"
         d="M 37 42 L 46 42 L 46 51.421875 L 37 51.421875 Z M 37 42 "
         id="path8" />
    </clipPath>
    <clipPath
       id="clip-8">
      <path
         clip-rule="nonzero"
         d="M 31 37 L 52 37 L 52 51.421875 L 31 51.421875 Z M 31 37 "
         id="path9" />
    </clipPath>
    <clipPath
       id="clip-9">
      <path
         clip-rule="nonzero"
         d="M 12 42 L 21 42 L 21 51.421875 L 12 51.421875 Z M 12 42 "
         id="path10" />
    </clipPath>
    <clipPath
       id="clip-10">
      <path
         clip-rule="nonzero"
         d="M 6 37 L 27 37 L 27 51.421875 L 6 51.421875 Z M 6 37 "
         id="path11" />
    </clipPath>
  </defs>
  <g
     clip-path="url(#clip-0)"
     id="g12">
    <path
       fill-rule="nonzero"
       fill="rgb(100%, 100%, 100%)"
       fill-opacity="1"
       d="M 0 51.421875 L 58 51.421875 L 58 0 L 0 0 Z M 0 51.421875 "
       id="path12" />
  </g>
  <path
     fill="none"
     stroke-width="1.19553"
     stroke-linecap="butt"
     stroke-linejoin="miter"
     stroke="rgb(0%, 0%, 0%)"
     stroke-opacity="1"
     stroke-miterlimit="10"
     d="M -12.273438 21.261781 L 12.273438 21.261781 "
     transform="matrix(1, 0, 0, -1, 29, 25.711)"
     id="path13" />
  <path
     fill="none"
     stroke-width="1.19553"
     stroke-linecap="butt"
     stroke-linejoin="miter"
     stroke="rgb(0%, 0%, 0%)"
     stroke-opacity="1"
     stroke-miterlimit="10"
     d="M 12.273438 21.261781 L 24.550781 0.0000625 "
     transform="matrix(1, 0, 0, -1, 29, 25.711)"
     id="path14" />
  <g
     clip-path="url(#clip-1)"
     id="g15">
    <path
       fill="none"
       stroke-width="1.19553"
       stroke-linecap="butt"
       stroke-linejoin="miter"
       stroke="rgb(0%, 0%, 0%)"
       stroke-opacity="1"
       stroke-miterlimit="10"
       d="M 24.550781 0.0000625 L 12.273438 -21.261656 "
       transform="matrix(1, 0, 0, -1, 29, 25.711)"
       id="path15" />
  </g>
  <path
     fill="none"
     stroke-width="1.19553"
     stroke-linecap="butt"
     stroke-linejoin="miter"
     stroke="rgb(0%, 0%, 0%)"
     stroke-opacity="1"
     stroke-miterlimit="10"
     d="M 12.273438 -21.261656 L -12.273438 -21.261656 "
     transform="matrix(1, 0, 0, -1, 29, 25.711)"
     id="path16" />
  <g
     clip-path="url(#clip-2)"
     id="g17">
    <path
       fill="none"
       stroke-width="1.19553"
       stroke-linecap="butt"
       stroke-linejoin="miter"
       stroke="rgb(0%, 0%, 0%)"
       stroke-opacity="1"
       stroke-miterlimit="10"
       d="M -12.273438 -21.261656 L -24.550781 0.0000625 "
       transform="matrix(1, 0, 0, -1, 29, 25.711)"
       id="path17" />
  </g>
  <path
     fill="none"
     stroke-width="1.19553"
     stroke-linecap="butt"
     stroke-linejoin="miter"
     stroke="rgb(0%, 0%, 0%)"
     stroke-opacity="1"
     stroke-miterlimit="10"
     d="M -24.550781 0.0000625 L -12.273438 21.261781 "
     transform="matrix(1, 0, 0, -1, 29, 25.711)"
     id="path18" />
  <path
     fill="none"
     stroke-width="0.79701"
     stroke-linecap="butt"
     stroke-linejoin="miter"
     stroke="rgb(0%, 0%, 0%)"
     stroke-opacity="1"
     stroke-miterlimit="10"
     d="M 0 7.086 L -12.273438 21.261781 "
     transform="matrix(1, 0, 0, -1, 29, 25.711)"
     id="path19" />
  <path
     fill="none"
     stroke-width="0.79701"
     stroke-linecap="butt"
     stroke-linejoin="miter"
     stroke="rgb(0%, 0%, 0%)"
     stroke-opacity="1"
     stroke-miterlimit="10"
     d="M 0 -7.085875 L -12.273438 21.261781 "
     transform="matrix(1, 0, 0, -1, 29, 25.711)"
     id="path20" />
  <path
     fill="none"
     stroke-width="0.79701"
     stroke-linecap="butt"
     stroke-linejoin="miter"
     stroke="rgb(0%, 0%, 0%)"
     stroke-opacity="1"
     stroke-miterlimit="10"
     d="M 0 7.086 L 12.273438 21.261781 "
     transform="matrix(1, 0, 0, -1, 29, 25.711)"
     id="path21" />
  <path
     fill="none"
     stroke-width="0.79701"
     stroke-linecap="butt"
     stroke-linejoin="miter"
     stroke="rgb(0%, 0%, 0%)"
     stroke-opacity="1"
     stroke-miterlimit="10"
     d="M 0 -7.085875 L 12.273438 21.261781 "
     transform="matrix(1, 0, 0, -1, 29, 25.711)"
     id="path22" />
  <path
     fill="none"
     stroke-width="0.79701"
     stroke-linecap="butt"
     stroke-linejoin="miter"
     stroke="rgb(0%, 0%, 0%)"
     stroke-opacity="1"
     stroke-miterlimit="10"
     d="M 0 7.086 L 24.550781 0.0000625 "
     transform="matrix(1, 0, 0, -1, 29, 25.711)"
     id="path23" />
  <path
     fill="none"
     stroke-width="0.79701"
     stroke-linecap="butt"
     stroke-linejoin="miter"
     stroke="rgb(0%, 0%, 0%)"
     stroke-opacity="1"
     stroke-miterlimit="10"
     d="M 0 -7.085875 L 24.550781 0.0000625 "
     transform="matrix(1, 0, 0, -1, 29, 25.711)"
     id="path24" />
  <g
     clip-path="url(#clip-3)"
     id="g25">
    <path
       fill="none"
       stroke-width="0.79701"
       stroke-linecap="butt"
       stroke-linejoin="miter"
       stroke="rgb(0%, 0%, 0%)"
       stroke-opacity="1"
       stroke-miterlimit="10"
       d="M 0 7.086 L 12.273438 -21.261656 "
       transform="matrix(1, 0, 0, -1, 29, 25.711)"
       id="path25" />
  </g>
  <g
     clip-path="url(#clip-4)"
     id="g26">
    <path
       fill="none"
       stroke-width="0.79701"
       stroke-linecap="butt"
       stroke-linejoin="miter"
       stroke="rgb(0%, 0%, 0%)"
       stroke-opacity="1"
       stroke-miterlimit="10"
       d="M 0 -7.085875 L 12.273438 -21.261656 "
       transform="matrix(1, 0, 0, -1, 29, 25.711)"
       id="path26" />
  </g>
  <g
     clip-path="url(#clip-5)"
     id="g27">
    <path
       fill="none"
       stroke-width="0.79701"
       stroke-linecap="butt"
       stroke-linejoin="miter"
       stroke="rgb(0%, 0%, 0%)"
       stroke-opacity="1"
       stroke-miterlimit="10"
       d="M 0 7.086 L -12.273438 -21.261656 "
       transform="matrix(1, 0, 0, -1, 29, 25.711)"
       id="path27" />
  </g>
  <g
     clip-path="url(#clip-6)"
     id="g28">
    <path
       fill="none"
       stroke-width="0.79701"
       stroke-linecap="butt"
       stroke-linejoin="miter"
       stroke="rgb(0%, 0%, 0%)"
       stroke-opacity="1"
       stroke-miterlimit="10"
       d="M 0 -7.085875 L -12.273438 -21.261656 "
       transform="matrix(1, 0, 0, -1, 29, 25.711)"
       id="path28" />
  </g>
  <path
     fill="none"
     stroke-width="0.79701"
     stroke-linecap="butt"
     stroke-linejoin="miter"
     stroke="rgb(0%, 0%, 0%)"
     stroke-opacity="1"
     stroke-miterlimit="10"
     d="M 0 7.086 L -24.550781 0.0000625 "
     transform="matrix(1, 0, 0, -1, 29, 25.711)"
     id="path29" />
  <path
     fill="none"
     stroke-width="0.79701"
     stroke-linecap="butt"
     stroke-linejoin="miter"
     stroke="rgb(0%, 0%, 0%)"
     stroke-opacity="1"
     stroke-miterlimit="10"
     d="M 0 -7.085875 L -24.550781 0.0000625 "
     transform="matrix(1, 0, 0, -1, 29, 25.711)"
     id="path30" />
  <path
     fill="none"
     stroke-width="0.79701"
     stroke-linecap="butt"
     stroke-linejoin="miter"
     stroke="rgb(0%, 0%, 0%)"
     stroke-opacity="1"
     stroke-miterlimit="10"
     d="M 0 7.086 L 0 0.0000625 "
     transform="matrix(1, 0, 0, -1, 29, 25.711)"
     id="path31" />
  <path
     fill-rule="nonzero"
     fill="rgb(25.881958%, 52.157593%, 95.684814%)"
     fill-opacity="1"
     stroke-width="0.3985"
     stroke-linecap="butt"
     stroke-linejoin="miter"
     stroke="rgb(0%, 0%, 0%)"
     stroke-opacity="1"
     stroke-miterlimit="10"
     d="M 4.25 7.086 C 4.25 9.433656 2.347656 11.339906 0 11.339906 C -2.347656 11.339906 -4.25 9.433656 -4.25 7.086 C -4.25 4.738344 -2.347656 2.836 0 2.836 C 2.347656 2.836 4.25 4.738344 4.25 7.086 Z M 4.25 7.086 "
     transform="matrix(1, 0, 0, -1, 29, 25.711)"
     id="path32" />
  <path
     fill="none"
     stroke-width="0.79701"
     stroke-linecap="butt"
     stroke-linejoin="miter"
     stroke="rgb(0%, 0%, 0%)"
     stroke-opacity="1"
     stroke-miterlimit="10"
     d="M 0 -7.085875 L 0 0.0000625 "
     transform="matrix(1, 0, 0, -1, 29, 25.711)"
     id="path33" />
  <path
     fill-rule="nonzero"
     fill="rgb(25.881958%, 52.157593%, 95.684814%)"
     fill-opacity="1"
     stroke-width="0.3985"
     stroke-linecap="butt"
     stroke-linejoin="miter"
     stroke="rgb(0%, 0%, 0%)"
     stroke-opacity="1"
     stroke-miterlimit="10"
     d="M 4.25 -7.085875 C 4.25 -4.738219 2.347656 -2.835875 0 -2.835875 C -2.347656 -2.835875 -4.25 -4.738219 -4.25 -7.085875 C -4.25 -9.433531 -2.347656 -11.339781 0 -11.339781 C 2.347656 -11.339781 4.25 -9.433531 4.25 -7.085875 Z M 4.25 -7.085875 "
     transform="matrix(1, 0, 0, -1, 29, 25.711)"
     id="path34" />
  <path
     fill-rule="nonzero"
     fill="rgb(50%, 50%, 50%)"
     fill-opacity="1"
     stroke-width="0.3985"
     stroke-linecap="butt"
     stroke-linejoin="miter"
     stroke="rgb(0%, 0%, 0%)"
     stroke-opacity="1"
     stroke-miterlimit="10"
     d="M -8.023438 21.261781 C -8.023438 23.609438 -9.925781 25.511781 -12.273438 25.511781 C -14.621094 25.511781 -16.527344 23.609438 -16.527344 21.261781 C -16.527344 18.910219 -14.621094 17.007875 -12.273438 17.007875 C -9.925781 17.007875 -8.023438 18.910219 -8.023438 21.261781 Z M -8.023438 21.261781 "
     transform="matrix(1, 0, 0, -1, 29, 25.711)"
     id="path35" />
  <path
     fill-rule="nonzero"
     fill="rgb(50%, 50%, 50%)"
     fill-opacity="1"
     stroke-width="0.3985"
     stroke-linecap="butt"
     stroke-linejoin="miter"
     stroke="rgb(0%, 0%, 0%)"
     stroke-opacity="1"
     stroke-miterlimit="10"
     d="M 16.527344 21.261781 C 16.527344 23.609438 14.621094 25.511781 12.273438 25.511781 C 9.925781 25.511781 8.023438 23.609438 8.023438 21.261781 C 8.023438 18.910219 9.925781 17.007875 12.273438 17.007875 C 14.621094 17.007875 16.527344 18.910219 16.527344 21.261781 Z M 16.527344 21.261781 "
     transform="matrix(1, 0, 0, -1, 29, 25.711)"
     id="path36" />
  <path
     fill-rule="nonzero"
     fill="rgb(50%, 50%, 50%)"
     fill-opacity="1"
     stroke-width="0.3985"
     stroke-linecap="butt"
     stroke-linejoin="miter"
     stroke="rgb(0%, 0%, 0%)"
     stroke-opacity="1"
     stroke-miterlimit="10"
     d="M 28.800781 0.0000625 C 28.800781 2.347719 26.898438 4.250063 24.550781 4.250063 C 22.199219 4.250063 20.296875 2.347719 20.296875 0.0000625 C 20.296875 -2.347594 22.199219 -4.249937 24.550781 -4.249937 C 26.898438 -4.249937 28.800781 -2.347594 28.800781 0.0000625 Z M 28.800781 0.0000625 "
     transform="matrix(1, 0, 0, -1, 29, 25.711)"
     id="path37" />
  <g
     clip-path="url(#clip-7)"
     id="g38">
    <path
       fill-rule="nonzero"
       fill="rgb(50%, 50%, 50%)"
       fill-opacity="1"
       d="M 45.527344 46.972656 C 45.527344 44.621094 43.621094 42.71875 41.273438 42.71875 C 38.925781 42.71875 37.023438 44.621094 37.023438 46.972656 C 37.023438 49.320312 38.925781 51.222656 41.273438 51.222656 C 43.621094 51.222656 45.527344 49.320312 45.527344 46.972656 Z M 45.527344 46.972656 "
       id="path38" />
  </g>
  <g
     clip-path="url(#clip-8)"
     id="g39">
    <path
       fill="none"
       stroke-width="0.3985"
       stroke-linecap="butt"
       stroke-linejoin="miter"
       stroke="rgb(0%, 0%, 0%)"
       stroke-opacity="1"
       stroke-miterlimit="10"
       d="M 16.527344 -21.261656 C 16.527344 -18.910094 14.621094 -17.00775 12.273438 -17.00775 C 9.925781 -17.00775 8.023438 -18.910094 8.023438 -21.261656 C 8.023438 -23.609312 9.925781 -25.511656 12.273438 -25.511656 C 14.621094 -25.511656 16.527344 -23.609312 16.527344 -21.261656 Z M 16.527344 -21.261656 "
       transform="matrix(1, 0, 0, -1, 29, 25.711)"
       id="path39" />
  </g>
  <g
     clip-path="url(#clip-9)"
     id="g40">
    <path
       fill-rule="nonzero"
       fill="rgb(50%, 50%, 50%)"
       fill-opacity="1"
       d="M 20.976562 46.972656 C 20.976562 44.621094 19.074219 42.71875 16.726562 42.71875 C 14.378906 42.71875 12.472656 44.621094 12.472656 46.972656 C 12.472656 49.320312 14.378906 51.222656 16.726562 51.222656 C 19.074219 51.222656 20.976562 49.320312 20.976562 46.972656 Z M 20.976562 46.972656 "
       id="path40" />
  </g>
  <g
     clip-path="url(#clip-10)"
     id="g41">
    <path
       fill="none"
       stroke-width="0.3985"
       stroke-linecap="butt"
       stroke-linejoin="miter"
       stroke="rgb(0%, 0%, 0%)"
       stroke-opacity="1"
       stroke-miterlimit="10"
       d="M -8.023438 -21.261656 C -8.023438 -18.910094 -9.925781 -17.00775 -12.273438 -17.00775 C -14.621094 -17.00775 -16.527344 -18.910094 -16.527344 -21.261656 C -16.527344 -23.609312 -14.621094 -25.511656 -12.273438 -25.511656 C -9.925781 -25.511656 -8.023438 -23.609312 -8.023438 -21.261656 Z M -8.023438 -21.261656 "
       transform="matrix(1, 0, 0, -1, 29, 25.711)"
       id="path41" />
  </g>
  <path
     fill-rule="nonzero"
     fill="rgb(50%, 50%, 50%)"
     fill-opacity="1"
     stroke-width="0.3985"
     stroke-linecap="butt"
     stroke-linejoin="miter"
     stroke="rgb(0%, 0%, 0%)"
     stroke-opacity="1"
     stroke-miterlimit="10"
     d="M -20.296875 0.0000625 C -20.296875 2.347719 -22.199219 4.250063 -24.550781 4.250063 C -26.898438 4.250063 -28.800781 2.347719 -28.800781 0.0000625 C -28.800781 -2.347594 -26.898438 -4.249937 -24.550781 -4.249937 C -22.199219 -4.249937 -20.296875 -2.347594 -20.296875 0.0000625 Z M -20.296875 0.0000625 "
     transform="matrix(1, 0, 0, -1, 29, 25.711)"
     id="path42" />
</svg>
